<?xml version="1.0" encoding="iso-8859-1"?>
<!-- Generator: Adobe Illustrator 19.0.0, SVG Export Plug-In . SVG Version: 6.00 Build 0)  -->
<svg version="1.1" id="Capa_1" xmlns="http://www.w3.org/2000/svg" xmlns:xlink="http://www.w3.org/1999/xlink" x="0px" y="0px"
	 viewBox="0 0 512 512" style="enable-background:new 0 0 512 512;" xml:space="preserve">
<circle style="fill:#0766A0;" cx="256" cy="256" r="256"/>
<path style="fill:#035677;" d="M512,256c0-9.186-0.494-18.257-1.439-27.193L385.306,103.55l-0.021,0.021
	c-11.626-12.076-27.945-19.602-46.033-19.602H172.748c-35.296,0-63.907,28.612-63.907,63.907v169.958
	c0,17.208,6.814,32.815,17.875,44.305l-0.021,0.021l149.087,149.086C407.922,501.149,512,390.729,512,256z"/>
<path style="fill:#41A0D7;" d="M339.252,83.968H172.748c-35.296,0-63.907,28.612-63.907,63.907v169.959
	c0,35.295,28.612,63.907,63.907,63.907h55.692l26.178,46.29l27.56-46.29h57.074c35.296,0,63.907-28.612,63.907-63.907V147.875
	C403.16,112.581,374.548,83.968,339.252,83.968z"/>
<g>
	<path style="fill:#FFFFFF;" d="M256,331.537c-45.464,0-87.198-22.928-111.639-61.331c-4.404-6.921-2.365-16.102,4.556-20.508
		c6.92-4.404,16.102-2.365,20.508,4.556c18.958,29.789,51.323,47.574,86.575,47.574s67.617-17.784,86.575-47.574
		c4.404-6.922,13.585-8.96,20.507-4.556c6.921,4.405,8.96,13.586,4.556,20.508C343.198,308.61,301.464,331.537,256,331.537z"/>
	<path style="fill:#FFFFFF;" d="M315.702,183.862v-22.8h-25.849v-25.849h-22.799v25.849h-22.11v-25.849h-22.8v25.849h-25.848v22.8
		h25.848v22.109h-25.848v22.8h25.848v25.849h22.8V228.77h22.11v25.849h22.799V228.77h25.849v-22.8h-25.849v-22.109L315.702,183.862
		L315.702,183.862z M267.055,205.97h-22.11v-22.109h22.11V205.97z"/>
</g>
<g>
</g>
<g>
</g>
<g>
</g>
<g>
</g>
<g>
</g>
<g>
</g>
<g>
</g>
<g>
</g>
<g>
</g>
<g>
</g>
<g>
</g>
<g>
</g>
<g>
</g>
<g>
</g>
<g>
</g>
</svg>
